<svg height="488pt" viewBox="-32 0 488 488.286" width="488pt" xmlns="http://www.w3.org/2000/svg"><path d="m272.144531 80v336c0 8.839844-7.160156 16-16 16h-240c-8.839843 0-16-7.160156-16-16v-336c0-8.839844 7.160157-16 16-16h240c8.839844 0 16 7.160156 16 16zm0 0" fill="#6e83b7"/><path d="m16.144531 80h240v336h-240zm0 0" fill="#edeff1"/><g fill="#d3d3d3"><path d="m32.144531 128h208v16h-208zm0 0"/><path d="m32.144531 176h208v16h-208zm0 0"/><path d="m32.144531 216h168v16h-168zm0 0"/></g><path d="m136.144531 0c-17.671875 0-32 14.328125-32 32v48h64v-48c0-17.671875-14.328125-32-32-32zm0 40c-4.417969 0-8-3.585938-8-8s3.582031-8 8-8c4.414063 0 8 3.585938 8 8s-3.585937 8-8 8zm0 0" fill="#6e83b7"/><path d="m192.144531 88h-112c-4.417969 0-8-3.585938-8-8v-16c0-4.414062 3.582031-8 8-8h112c4.414063 0 8 3.585938 8 8v16c0 4.414062-3.585937 8-8 8zm0 0" fill="#6e83b7"/><path d="m104.144531 48h64v8h-64zm0 0" fill="#466089"/><path d="m376.144531 480-160-160 40-40 160 160c11.046875 11.046875 11.046875 28.953125 0 40-11.050781 11.046875-28.953125 11.046875-40 0zm0 0" fill="#6e83b7"/><path d="m256.144531 280-40 40 78.335938 78.335938c16.308593-9.976563 30.023437-23.6875 40-40zm0 0" fill="#466089"/><path d="m336.144531 296c0 57.4375-46.5625 104-104 104s-104-46.5625-104-104 46.5625-104 104-104 104 46.5625 104 104zm0 0" fill="#6e83b7"/><path d="m320.144531 296c0 48.601562-39.402343 88-88 88-48.601562 0-88-39.398438-88-88s39.398438-88 88-88c48.597657 0 88 39.398438 88 88zm0 0" fill="#80d6fb"/><path d="m216.144531 342.632812-43.3125-43.320312 22.621094-22.625 20.691406 20.679688 52.6875-52.679688 22.621094 22.625zm0 0" fill="#98ca69"/></svg>