<?xml version="1.0" encoding="iso-8859-1"?>
<!-- Generator: Adobe Illustrator 19.0.0, SVG Export Plug-In . SVG Version: 6.00 Build 0)  -->
<svg version="1.1" id="Layer_1" xmlns="http://www.w3.org/2000/svg" xmlns:xlink="http://www.w3.org/1999/xlink" x="0px" y="0px"
	 viewBox="0 0 512.001 512.001" style="enable-background:new 0 0 512.001 512.001;" xml:space="preserve">
<g>
	<circle style="fill:#FF8C78;" cx="256" cy="329.754" r="17.102"/>
	<path style="fill:#FF8C78;" d="M256,283.792c-7.675,0-13.896-6.221-13.896-13.896v-94.063c0-7.675,6.221-13.896,13.896-13.896
		s13.896,6.221,13.896,13.896v94.063C269.896,277.571,263.675,283.792,256,283.792z"/>
</g>
<circle style="fill:#FFE9C4;" cx="401.37" cy="264.552" r="68.409"/>
<path style="fill:#69788D;" d="M486.881,247.449c0-111.165-153.921-94.063-153.921-94.063v34.205l-34.205,8.551
	c0,0,28.744,98.61,42.756,112.351v-78.147h119.716v78.147C477.053,292.976,486.881,271.365,486.881,247.449z"/>
<path style="fill:#56677E;" d="M344.276,230.347c6.792-31.104,25.671-57.684,51.473-74.575c-33.218-5.669-62.788-2.386-62.788-2.386
	v34.205l-34.205,8.551c0,0,28.744,98.61,42.756,112.351v-78.147H344.276z"/>
<path style="fill:#ECEEF1;" d="M503.984,503.984H307.307V375.717c0-18.891,15.314-34.205,34.205-34.205h128.267
	c18.891,0,34.205,15.314,34.205,34.205V503.984z"/>
<g>
	<rect x="384.267" y="341.512" style="fill:#3CBDE8;" width="34.205" height="34.205"/>
	<polygon style="fill:#3CBDE8;" points="427.023,461.228 401.37,478.33 375.716,461.228 384.267,375.717 418.472,375.717 	"/>
</g>
<path style="fill:#D9DDE2;" d="M341.512,388.543c0-16.226,2.018-31.978,5.801-47.031h-5.801c-18.891,0-34.205,15.314-34.205,34.205
	v128.267h72.676C355.829,471.827,341.512,431.858,341.512,388.543z"/>
<rect x="33.67" y="127.733" style="fill:#435670;" width="145.37" height="85.511"/>
<circle style="fill:#3CBDE8;" cx="105.97" cy="127.733" r="68.409"/>
<path style="fill:#2C9DD4;" d="M105.974,136.284c23.511,0,44.248,11.865,56.562,29.929c7.474-10.964,11.848-24.209,11.848-38.48
	c0-37.781-30.628-68.409-68.409-68.409s-68.409,30.628-68.409,68.409c0,14.271,4.374,27.517,11.848,38.48
	C61.727,148.149,82.462,136.284,105.974,136.284z"/>
<g>
	<path style="fill:#56677E;" d="M174.383,93.529c-19.692-49.515-54.749-76.161-68.409-85.511
		c-13.66,9.351-48.717,35.996-68.409,85.511c-20.153,50.672-7.557,103.675-3.894,119.716
		c-6.932-50.834,28.306-102.614,72.303-102.614s79.997,51.779,73.066,102.614C182.703,197.204,194.536,144.201,174.383,93.529z"/>
	<path style="fill:#56677E;" d="M204.693,367.165H8.017V247.449c0-18.891,15.314-34.205,34.205-34.205h128.267
		c18.891,0,34.205,15.314,34.205,34.205V367.165z"/>
</g>
<g>
	<polygon style="fill:#C7CCD4;" points="161.938,341.512 42.222,341.512 33.67,247.449 170.489,247.449 	"/>
	<rect x="33.67" y="341.512" style="fill:#C7CCD4;" width="145.37" height="25.653"/>
</g>
<path d="M256,304.635c-13.851,0-25.119,11.268-25.119,25.119c0,13.851,11.268,25.119,25.119,25.119s25.119-11.268,25.119-25.119
	C281.119,315.903,269.851,304.635,256,304.635z M256,338.84c-5.01,0-9.086-4.076-9.086-9.086s4.076-9.086,9.086-9.086
	c5.01,0,9.086,4.076,9.086,9.086S261.01,338.84,256,338.84z"/>
<path d="M256,291.808c12.083,0,21.912-9.83,21.912-21.912v-94.063c0-12.083-9.83-21.912-21.912-21.912
	c-12.083,0-21.912,9.83-21.912,21.912v94.063C234.088,281.979,243.917,291.808,256,291.808z M250.121,175.834
	c0-3.241,2.637-5.879,5.879-5.879c3.241,0,5.879,2.638,5.879,5.879v94.063c0,3.241-2.638,5.879-5.879,5.879
	c-3.242,0-5.879-2.638-5.879-5.879V175.834z"/>
<path d="M503.984,409.382c4.428,0,8.017-3.588,8.017-8.017v-25.649c0-23.28-18.941-42.221-42.221-42.221h-35.468
	c8.931-4.269,17.003-10.251,23.717-17.659c2.958,1.304,6.507,0.643,8.813-1.619c18.093-17.743,28.057-41.454,28.057-66.767
	c0-29.028-9.827-52.541-29.209-69.89c-15.39-13.775-34.971-21.976-54.372-26.782C376.306,99.196,318.279,68.41,256,68.41
	c-26.741,0-52.488,5.484-76.618,16.309c-19.491-44.674-51.231-71.236-68.88-83.317c-2.729-1.871-6.326-1.867-9.057-0.001
	c-18.407,12.6-52.151,40.939-71.33,89.165c-19.048,47.894-10.299,97.07-5.589,118.563C10.062,215.836,0,230.486,0,247.449v9.087
	c0,4.428,3.589,8.017,8.017,8.017s8.017-3.588,8.017-8.017v-9.087c0-14.441,11.748-26.188,26.188-26.188h128.267
	c14.44,0,26.188,11.747,26.188,26.188v111.699h-9.62v-17.637c0-4.351-3.469-7.884-7.79-8.005l7.757-85.332
	c0.421-4.625-3.34-8.742-7.984-8.742H33.67c-4.644,0-8.405,4.117-7.984,8.742l7.757,85.332c-4.322,0.121-7.79,3.654-7.79,8.005
	v17.637h-9.62v-59.325c0-4.428-3.589-8.017-8.017-8.017S0,295.396,0,299.824v67.341c0,4.428,3.589,8.017,8.017,8.017h103.34
	c0.262,0.495,0.576,0.972,0.95,1.417c35.767,42.574,88.141,66.992,143.694,66.992c14.644,0,29.169-1.705,43.29-5.04v65.432
	c0,4.428,3.588,8.017,8.017,8.017h196.676c4.428,0,8.017-3.588,8.017-8.017v-59.325c0-4.428-3.588-8.017-8.017-8.017
	s-8.017,3.588-8.017,8.017v51.308H315.324V375.717c0-14.441,11.747-26.188,26.188-26.188h34.739v25.787l-8.512,85.115
	c-0.295,2.95,1.062,5.822,3.531,7.467L396.923,485c2.664,1.775,6.23,1.776,8.893,0l25.653-17.102
	c2.468-1.645,3.826-4.518,3.531-7.467l-8.512-85.115v-25.787h43.29c14.441,0,26.188,11.747,26.188,26.188v25.649
	C495.967,405.794,499.555,409.382,503.984,409.382z M401.37,324.944c-21.269,0-40.948-11.213-51.841-29.395v-57.186h103.683v57.188
	C442.316,313.734,422.638,324.944,401.37,324.944z M478.865,247.449c0,13.332-3.336,26.128-9.62,37.459v-54.562
	c0-4.428-3.588-8.017-8.017-8.017H341.512c-4.428,0-8.017,3.588-8.017,8.017v44.701c-8.147-20.848-17.561-49.432-24.679-73.157
	l26.089-6.522c3.569-0.893,6.072-4.099,6.072-7.777v-26.764c20.524-1.107,80.351-1.454,114.019,28.679
	C470.834,203.682,478.865,223.177,478.865,247.449z M45.015,96.491c16.132-40.562,43.49-65.802,60.96-78.644
	c17.469,12.843,44.828,38.083,60.96,78.644c7.014,17.636,10.635,37.142,10.858,58.347c-4.141-8.899-9.493-17.225-15.952-24.625
	c-15.535-17.796-35.376-27.598-55.866-27.598c-20.295,0-39.904,9.659-55.212,27.195c-6.671,7.643-12.157,16.296-16.34,25.569
	C34.45,137.111,37.027,116.575,45.015,96.491z M159.829,155.077c-10.369,20.413-30.896,33.049-53.854,33.049
	c-22.358,0-42.791-12.268-53.325-32.014c-0.104-0.195-0.219-0.378-0.337-0.561c2.983-5.467,6.505-10.586,10.53-15.196
	c12.217-13.997,27.535-21.706,43.132-21.706c15.791,0,31.342,7.852,43.786,22.109C153.577,145.128,156.942,149.948,159.829,155.077z
	 M40.962,205.26c-0.575-10.609,0.785-21.425,3.855-31.688c14.307,19.102,36.826,30.587,61.157,30.587
	c24.391,0,47.316-11.903,61.574-31.185c3.276,10.457,4.76,21.49,4.194,32.286C171.325,205.248,41.381,205.248,40.962,205.26z
	 M170.261,255.466l-7.093,78.029H49.542l-7.093-78.029H170.261z M41.687,349.529h0.534h128.267h0.534v9.62H41.687V349.529z
	 M299.29,375.717v46.309c-14.067,3.657-28.609,5.533-43.29,5.533c-46.794,0-91.112-18.959-123.381-52.376h72.074
	c4.427,0,8.017-3.588,8.017-8.017V247.449c0-16.982-10.082-31.644-24.57-38.34c8.485-40.771,7.476-77.492-2.997-109.388
	C207.431,89.588,231.246,84.443,256,84.443c51.365,0,99.564,22.907,132.021,62.008c-29.52-3.818-54.063-1.243-55.946-1.031
	c-4.061,0.451-7.132,3.883-7.132,7.968v27.946l-28.132,7.032c-4.345,1.087-7.009,5.713-5.752,10.021
	c4.898,16.803,30.078,101.356,44.839,115.832c2.302,2.261,5.739,2.917,8.717,1.669c0.033-0.014,0.063-0.034,0.096-0.049
	c6.714,7.407,14.786,13.389,23.717,17.659h-26.917C318.231,333.495,299.29,352.436,299.29,375.717z M401.37,468.695l-17.197-11.465
	l7.35-73.497h19.695l7.35,73.498L401.37,468.695z M410.455,367.7h-18.171v-18.171h18.171V367.7z"/>
<path d="M375.716,256.535c-4.428,0-8.017,3.588-8.017,8.017v1.069c0,4.428,3.588,8.017,8.017,8.017s8.017-3.588,8.017-8.017v-1.069
	C383.733,260.123,380.145,256.535,375.716,256.535z"/>
<path d="M427.023,256.535c-4.428,0-8.017,3.588-8.017,8.017v1.069c0,4.428,3.588,8.017,8.017,8.017c4.428,0,8.017-3.588,8.017-8.017
	v-1.069C435.04,260.123,431.452,256.535,427.023,256.535z"/>
<path d="M97.804,289.671h0.534v17.637c0,4.428,3.589,8.017,8.017,8.017c4.427,0,8.017-3.588,8.017-8.017v-17.637h0.534
	c4.427,0,8.017-3.588,8.017-8.017c0-4.428-3.589-8.017-8.017-8.017H97.804c-4.427,0-8.017,3.588-8.017,8.017
	C89.787,286.082,93.377,289.671,97.804,289.671z"/>
<g>
</g>
<g>
</g>
<g>
</g>
<g>
</g>
<g>
</g>
<g>
</g>
<g>
</g>
<g>
</g>
<g>
</g>
<g>
</g>
<g>
</g>
<g>
</g>
<g>
</g>
<g>
</g>
<g>
</g>
</svg>
