<svg height="512pt" viewBox="0 0 512 512" width="512pt" xmlns="http://www.w3.org/2000/svg"><path d="m512 256c0 141.386719-114.613281 256-256 256s-256-114.613281-256-256 114.613281-256 256-256 256 114.613281 256 256zm0 0" fill="#ffe000"/><path d="m512 256c0-5.488281-.191406-10.929688-.53125-16.332031l-115.179688-115.175781-34.117187 55.617187-69.453125-69.453125-210.6875 250.15625 150.070312 150.066406c7.871094.730469 15.839844 1.121094 23.898438 1.121094 141.386719 0 256-114.613281 256-256zm0 0" fill="#ffc200"/><path d="m130.710938 139.492188h250.578124v192.28125h-250.578124zm0 0" fill="#fff"/><path d="m255.714844 139.492188h125.574218v192.28125h-125.574218zm0 0" fill="#dbeeff"/><path d="m396.289062 346.773438h-280.578124v-222.28125h280.578124zm-250.578124-30h220.578124v-162.28125h-220.578124zm0 0" fill="#0053bf"/><path d="m396.289062 124.492188h-140.574218v30h110.574218v162.28125h-110.574218v30h140.574218zm0 0" fill="#2d5396"/><path d="m82.03125 302.730469h347.933594v58.082031h-347.933594zm0 0" fill="#1b3b6b"/><path d="m255.714844 302.730469h174.25v58.082031h-174.25zm0 0" fill="#12254c"/><path d="m312.644531 187.761719h-30v-34.015625c0-14.6875-11.953125-26.640625-26.644531-26.640625s-26.644531 11.953125-26.644531 26.640625v34.015625h-30v-34.015625c0-31.230469 25.410156-56.640625 56.644531-56.640625s56.644531 25.410156 56.644531 56.640625zm0 0" fill="#4a7aff"/><path d="m256 97.105469c-.097656 0-.191406.007812-.285156.007812v30c.09375 0 .1875-.007812.285156-.007812 14.691406 0 26.644531 11.953125 26.644531 26.640625v34.015625h30v-34.015625c0-31.230469-25.414062-56.640625-56.644531-56.640625zm0 0" fill="#2864f0"/><path d="m189.253906 177.144531h133.492188v94.429688h-133.492188zm0 0" fill="#2d5396"/><path d="m255.714844 177.144531h67.03125v94.429688h-67.03125zm0 0" fill="#1b3b6b"/><path d="m244.40625 207.476562h23.191406v41.734376h-23.191406zm0 0" fill="#4a98f7"/><path d="m255.714844 207.476562h11.878906v41.734376h-11.878906zm0 0" fill="#4a7aff"/></svg>