<svg height="500pt" viewBox="-48 0 500 500.4" width="500pt" xmlns="http://www.w3.org/2000/svg"><path d="m252.160156 261.058594c48.804688-11.898438 99.785156 8.457031 126.976563 50.699218 27.1875 42.238282 24.601562 97.074219-6.4375 136.570313-31.042969 39.492187-83.710938 54.964844-131.179688 38.527344-47.46875-16.433594-79.296875-61.160157-79.269531-111.394531-.328125-54.417969 36.957031-101.859376 89.910156-114.402344zm-32.332031 169.613281 22.632813 22.4375 25.21875-25.039063-22.621094-22.621093zm129.773437-95.933594c-.003906-18.691406-15.160156-33.839843-33.851562-33.839843-18.691406.003906-33.84375 15.160156-33.839844 33.851562s15.15625 33.84375 33.851563 33.839844c18.691406-.003906 33.839843-15.160156 33.839843-33.851563zm0 0" fill="#00efd1"/><path d="m315.761719 300.890625c18.691406 0 33.847656 15.15625 33.847656 33.847656 0 18.695313-15.15625 33.851563-33.847656 33.851563-18.695313 0-33.851563-15.15625-33.851563-33.851563 0-18.695312 15.15625-33.847656 33.851563-33.847656zm0 0" fill="#fedb41"/><path d="m267.679688 428.070312-25.21875 25.039063-22.632813-22.4375 25.230469-25.222656zm0 0" fill="#fedb41"/><path d="m149.171875 178.289062c49.472656.078126 92.265625 34.472657 102.988281 82.769532-61.324218 14.953125-99.972656 75.578125-87.640625 137.480468h-157.800781v-114.777343c.101562-58.351563 47.480469-105.570313 105.832031-105.472657zm0 0" fill="#00acea"/><path d="m202.488281 78.640625v.039063c0 39.625-32.113281 71.753906-71.738281 71.769531h-.058594c-39.640625.011719-71.789062-32.109375-71.8125-71.75v-.097657c.003906-39.625 32.117188-71.753906 71.742188-71.773437h.109375c39.625 0 71.75 32.117187 71.757812 71.742187zm0 0" fill="#00acea"/><g fill="#083863"><path d="m6.71875 406h152.195312c13.648438 55 63.65625 94.398438 121.046876 94.398438 68.769531 0 124.71875-56.058594 124.71875-124.824219s-55.949219-124.773438-124.71875-124.773438c-7.613282-.011719-15.210938.671875-22.699219 2.046875-13.808594-48.292968-57.863281-81.652344-108.089844-81.847656h-36.800781c-62.027344 0-112.171875 50.699219-112.171875 112.761719v114.777343c0 3.867188 2.65625 7.460938 6.519531 7.460938zm383.960938-30.539062c0 61.144531-49.570313 110.714843-110.714844 110.714843-61.144532 0-110.714844-49.570312-110.714844-110.714843-.097656-25.0625 8.402344-49.398438 24.082031-68.949219 15.332031-19.210938 36.597657-32.804688 60.472657-38.648438h.019531c33.003906-8 67.855469-.421875 94.554687 20.570313 26.695313 20.988281 42.289063 53.066406 42.300782 87.027344zm-376.480469-91.6875c0-54.339844 43.847656-98.773438 98.179687-98.773438h36.78125c43.753906.183594 82.1875 29.097656 94.5 71.085938-24.152344 7.402343-45.507812 21.925781-61.269531 41.664062-17.671875 22.117188-27.246094 49.613281-27.136719 77.921875.023438 5.457031.367188 10.910156 1.035156 16.328125h-142.089843zm0 0"/><path d="m130.671875 157h.082031c20.800782.058594 40.769532-8.167969 55.488282-22.867188 14.722656-14.695312 22.984374-34.652343 22.957031-55.453124v-.113282c.03125-20.828125-8.222657-40.816406-22.941407-55.554687-14.722656-14.738281-34.699218-23.01562525-55.527343-23.011719h-.113281c-20.828126.00390625-40.796876 8.292969-55.507813 23.039062-14.710937 14.742188-22.953125 34.734376-22.910156 55.5625v.097657c-.023438 20.804687 8.242187 40.761719 22.96875 55.453125 14.726562 14.695312 34.699219 22.917968 55.503906 22.847656zm-.050781-143.171875v-7l.113281 7c35.738281.042969 64.707031 29.003906 64.757813 64.742187h7l-7-.113281c-.058594 35.699219-29.042969 64.59375-64.742188 64.542969h-.078125c-35.667969.011719-64.597656-28.890625-64.609375-64.558594-.011719-35.671875 28.890625-64.597656 64.558594-64.613281zm0 0"/><path d="m203.851562 436.75c-2.734374 2.734375-2.734374 7.167969 0 9.898438 2.730469 2.734374 7.164063 2.734374 9.898438 0l6.101562-6.097657 17.679688 17.53125c2.726562 2.707031 7.128906 2.707031 9.859375 0l25.21875-25.039062c1.320313-1.3125 2.066406-3.09375 2.070313-4.957031.003906-1.859376-.734376-3.644532-2.050782-4.960938l-17.675781-17.675781 37.316406-37.320313c17.363281 12.226563 41.191407 9.136719 54.863281-7.113281 13.667969-16.25 12.636719-40.253906-2.378906-55.269531s-39.019531-16.046875-55.269531-2.378906c-16.25 13.671874-19.339844 37.5-7.113281 54.863281zm53.910157-8.699219-15.304688 15.199219-12.707031-12.601562 15.300781-15.296876zm58-120.164062c14.828125 0 26.851562 12.023437 26.851562 26.851562s-12.023437 26.851563-26.851562 26.851563-26.851563-12.023438-26.851563-26.851563c.015625-14.820312 12.027344-26.832031 26.851563-26.847656zm0 0"/></g></svg>