<svg height="512pt" viewBox="-24 0 512 512" width="512pt" xmlns="http://www.w3.org/2000/svg"><path d="m412.652344 327.589844h-360.4375c-28.789063 0-52.214844 23.425781-52.214844 52.214844v79.980468c0 28.789063 23.425781 52.214844 52.214844 52.214844h360.4375c28.792968 0 52.21875-23.425781 52.21875-52.214844v-79.980468c0-28.789063-23.425782-52.214844-52.21875-52.214844zm0 0" fill="#e0f4ff"/><path d="m412.652344 327.589844h-180.21875v184.410156h180.21875c28.792968 0 52.21875-23.425781 52.21875-52.214844v-79.980468c0-28.789063-23.425782-52.214844-52.21875-52.214844zm0 0" fill="#bbdcff"/><path d="m412.652344 327.589844h-360.4375c-28.789063 0-52.214844 23.425781-52.214844 52.214844v79.980468c0 28.789063 23.425781 52.214844 52.214844 52.214844h360.4375c28.792968 0 52.21875-23.425781 52.21875-52.214844v-79.980468c0-28.789063-23.425782-52.214844-52.21875-52.214844zm-289.710938 101.183594-3.914062 1.273437 2.421875 3.328125c4.867187 6.703125 3.382812 16.082031-3.320313 20.953125-2.660156 1.933594-5.746094 2.863281-8.804687 2.863281-4.636719 0-9.210938-2.140625-12.144531-6.183594l-2.421876-3.328124-2.417968 3.328124c-2.933594 4.042969-7.507813 6.183594-12.148438 6.183594-3.054687 0-6.140625-.929687-8.804687-2.863281-6.699219-4.871094-8.1875-14.25-3.316407-20.953125l2.417969-3.328125-3.914062-1.273437c-7.878907-2.558594-12.1875-11.023438-9.628907-18.902344 2.558594-7.878906 11.019532-12.191406 18.902344-9.628906l3.914063 1.273437v-4.117187c0-8.285157 6.714843-15 15-15 8.28125 0 15 6.714843 15 15v4.117187l3.914062-1.273437c7.878907-2.558594 16.339844 1.75 18.898438 9.628906 2.558593 7.878906-1.753907 16.34375-9.632813 18.902344zm91.785156 0-3.914062 1.273437 2.417969 3.328125c4.871093 6.703125 3.386719 16.082031-3.316407 20.953125-2.660156 1.933594-5.75 2.863281-8.804687 2.863281-4.640625 0-9.210937-2.140625-12.148437-6.183594l-2.417969-3.328124-2.417969 3.328124c-2.9375 4.042969-7.511719 6.183594-12.148438 6.183594-3.054687 0-6.140624-.929687-8.804687-2.863281-6.703125-4.871094-8.1875-14.25-3.316406-20.953125l2.417969-3.328125-3.914063-1.273437c-7.878906-2.558594-12.191406-11.023438-9.628906-18.902344 2.558593-7.878906 11.019531-12.191406 18.898437-9.628906l3.914063 1.273437v-4.117187c0-8.285157 6.71875-15 15-15 8.285156 0 15 6.714843 15 15v4.117187l3.914062-1.273437c7.882813-2.558594 16.34375 1.75 18.902344 9.628906s-1.753906 16.34375-9.632813 18.902344zm91.785157 0-3.914063 1.273437 2.417969 3.328125c4.871094 6.703125 3.386719 16.082031-3.316406 20.953125-2.664063 1.933594-5.75 2.863281-8.804688 2.863281-4.640625 0-9.210937-2.140625-12.148437-6.183594l-2.417969-3.328124-2.417969 3.328124c-2.9375 4.042969-7.511718 6.183594-12.148437 6.183594-3.058594 0-6.140625-.929687-8.804688-2.863281-6.703125-4.871094-8.1875-14.25-3.316406-20.953125l2.417969-3.328125-3.914063-1.273437c-7.878906-2.558594-12.191406-11.023438-9.628906-18.902344 2.558594-7.878906 11.019531-12.191406 18.898437-9.628906l3.914063 1.273437v-4.117187c0-8.285157 6.71875-15 15-15 8.285156 0 15 6.714843 15 15v4.117187l3.914063-1.273437c7.878906-2.558594 16.34375 1.75 18.902343 9.628906 2.558594 7.878906-1.753906 16.34375-9.632812 18.902344zm91.785156 0-3.914063 1.273437 2.417969 3.328125c4.871094 6.703125 3.382813 16.082031-3.316406 20.953125-2.664063 1.933594-5.75 2.863281-8.804687 2.863281-4.640626 0-9.214844-2.140625-12.148438-6.183594l-2.417969-3.328124-2.421875 3.328124c-2.933594 4.042969-7.507812 6.183594-12.144531 6.183594-3.058594 0-6.144531-.929687-8.804687-2.863281-6.703126-4.871094-8.1875-14.25-3.320313-20.953125l2.421875-3.328125-3.914062-1.273437c-7.878907-2.558594-12.191407-11.023438-9.632813-18.902344 2.5625-7.878906 11.023437-12.191406 18.902344-9.628906l3.914062 1.273437v-4.117187c0-8.285157 6.714844-15 15-15 8.285157 0 15 6.714843 15 15v4.117187l3.914063-1.273437c7.878906-2.558594 16.339844 1.75 18.902344 9.628906 2.558593 7.878906-1.753907 16.34375-9.632813 18.902344zm0 0" fill="#47568c"/><path d="m412.652344 327.589844h-180.21875v184.410156h180.21875c28.792968 0 52.21875-23.425781 52.21875-52.214844v-79.980468c0-28.789063-23.425782-52.214844-52.21875-52.214844zm-106.140625 101.183594-3.914063 1.273437 2.417969 3.328125c4.871094 6.703125 3.386719 16.082031-3.316406 20.953125-2.664063 1.933594-5.75 2.863281-8.804688 2.863281-4.640625 0-9.210937-2.140625-12.148437-6.183594l-2.417969-3.328124-2.417969 3.328124c-2.9375 4.042969-7.511718 6.183594-12.148437 6.183594-3.058594 0-6.140625-.929687-8.804688-2.863281-6.703125-4.871094-8.1875-14.25-3.316406-20.953125l2.417969-3.328125-3.914063-1.273437c-7.878906-2.558594-12.191406-11.023438-9.628906-18.902344 2.558594-7.878906 11.019531-12.191406 18.898437-9.628906l3.914063 1.273437v-4.117187c0-8.285157 6.71875-15 15-15 8.285156 0 15 6.714843 15 15v4.117187l3.914063-1.273437c7.878906-2.558594 16.34375 1.75 18.902343 9.628906 2.558594 7.878906-1.753906 16.34375-9.632812 18.902344zm91.785156 0-3.914063 1.273437 2.417969 3.328125c4.871094 6.703125 3.382813 16.082031-3.316406 20.953125-2.664063 1.933594-5.75 2.863281-8.804687 2.863281-4.640626 0-9.214844-2.140625-12.148438-6.183594l-2.417969-3.328124-2.421875 3.328124c-2.933594 4.042969-7.507812 6.183594-12.144531 6.183594-3.058594 0-6.144531-.929687-8.804687-2.863281-6.703126-4.871094-8.1875-14.25-3.320313-20.953125l2.421875-3.328125-3.914062-1.273437c-7.878907-2.558594-12.191407-11.023438-9.632813-18.902344 2.5625-7.878906 11.023437-12.191406 18.902344-9.628906l3.914062 1.273437v-4.117187c0-8.285157 6.714844-15 15-15 8.285157 0 15 6.714843 15 15v4.117187l3.914063-1.273437c7.878906-2.558594 16.339844 1.75 18.902344 9.628906 2.558593 7.878906-1.753907 16.34375-9.632813 18.902344zm0 0" fill="#2c3b73"/><path d="m232.433594 0c-82.289063 0-149.238282 66.949219-149.238282 149.242188 0 82.289062 66.949219 149.242187 149.238282 149.242187 82.292968 0 149.242187-66.953125 149.242187-149.242187 0-82.292969-66.949219-149.242188-149.242187-149.242188zm0 0" fill="#e0f4ff"/><path d="m232.433594 0v298.484375c82.292968 0 149.242187-66.953125 149.242187-149.242187 0-82.292969-66.949219-149.242188-149.242187-149.242188zm0 0" fill="#bbdcff"/><path d="m276.289062 158.484375c-5.707031-3.191406-12.820312-2.320313-17.585937 2.152344-7.148437 6.707031-16.476563 10.402343-26.265625 10.402343s-19.121094-3.695312-26.269531-10.402343c-4.765625-4.472657-11.878907-5.34375-17.582031-2.152344-28.449219 15.90625-46.121094 46.007813-46.121094 78.554687v31.191407c25.03125 18.976562 56.207031 30.253906 89.972656 30.253906 33.761719 0 64.9375-11.277344 89.96875-30.253906v-31.191407c0-32.546874-17.671875-62.648437-46.117188-78.554687zm0 0" fill="#6e67d6"/><path d="m276.289062 158.484375c-5.707031-3.191406-12.820312-2.320313-17.585937 2.152344-7.148437 6.707031-16.476563 10.402343-26.265625 10.402343v127.441407c33.761719 0 64.9375-11.273438 89.96875-30.25v-31.191407c0-32.546874-17.671875-62.648437-46.117188-78.554687zm0 0" fill="#534ccf"/><path d="m232.433594 201.039062c-37.71875 0-68.410156-30.6875-68.410156-68.410156s30.691406-68.410156 68.410156-68.410156c37.722656 0 68.414062 30.6875 68.414062 68.410156s-30.691406 68.410156-68.414062 68.410156zm0 0" fill="#ffdf45"/><path d="m300.847656 132.628906c0-37.722656-30.691406-68.410156-68.414062-68.410156v136.820312c37.722656 0 68.414062-30.6875 68.414062-68.410156zm0 0" fill="#ffce00"/></svg>