<?xml version="1.0" encoding="iso-8859-1"?>
<!-- Generator: Adobe Illustrator 19.0.0, SVG Export Plug-In . SVG Version: 6.00 Build 0)  -->
<svg version="1.1" id="Capa_1" xmlns="http://www.w3.org/2000/svg" xmlns:xlink="http://www.w3.org/1999/xlink" x="0px" y="0px"
	 viewBox="0 0 512.12 512.12" style="enable-background:new 0 0 512.12 512.12;" xml:space="preserve">
<path style="fill:#607D8B;" d="M509.016,493.781L242.349,227.115c-4.237-4.092-10.99-3.975-15.083,0.262
	c-3.992,4.134-3.992,10.687,0,14.82L401.048,416l-35.115,35.115c-4.237,4.093-4.354,10.846-0.261,15.083s10.846,4.354,15.083,0.261
	c0.089-0.086,0.176-0.173,0.261-0.261l35.115-35.115l27.584,27.584L408.6,493.781c-4.237,4.093-4.354,10.846-0.261,15.083
	c4.093,4.237,10.846,4.354,15.083,0.261c0.089-0.086,0.176-0.173,0.261-0.261l35.115-35.115l35.115,35.115
	c4.237,4.093,10.99,3.976,15.083-0.261c3.993-4.134,3.993-10.688,0-14.821H509.016z"/>
<circle style="fill:#455A64;" cx="138.797" cy="138.667" r="138.667"/>
<g>
</g>
<g>
</g>
<g>
</g>
<g>
</g>
<g>
</g>
<g>
</g>
<g>
</g>
<g>
</g>
<g>
</g>
<g>
</g>
<g>
</g>
<g>
</g>
<g>
</g>
<g>
</g>
<g>
</g>
</svg>
